<svg width="47" height="71" viewBox="0 0 47 71" fill="none" xmlns="http://www.w3.org/2000/svg">
<path d="M23.2575 70.0813L4.48357 64.4894L0.299805 14.1421H46.2713L42.0832 64.4816L23.2575 70.0813V70.0813Z" fill="#264DE4"/>
<path d="M38.4983 61.2763L42.0771 18.2588H23.2861V65.8012L38.4983 61.2763V61.2763Z" fill="#2965F1"/>
<path d="M9.89102 36.9312L10.4068 43.1061H23.2857V36.9312H9.89102ZM8.85449 24.4331L9.37762 30.608H23.2857V24.4331H8.85449V24.4331ZM23.2857 52.9681L23.2604 52.9752L16.851 51.1183L16.4412 46.1936H10.6639L11.4701 55.8891L23.2592 59.4003L23.2857 59.3926V52.9681Z" fill="#EBEBEB"/>
<path d="M11.1191 0.459473H18.0894V3.58704H14.0341V6.7146H18.0897V9.84197H11.1191V0.459473ZM19.4836 0.459473H26.454V3.17908H22.3986V3.72296H26.454V9.97809H19.4838V7.12218H23.5393V6.57829H19.4834V0.459473H19.4836ZM27.8483 0.459473H34.8187V3.17908H30.7632V3.72296H34.8187V9.97809H27.8483V7.12218H31.9037V6.57829H27.8484V0.459473H27.8483Z" fill="black"/>
<path d="M36.6445 36.9312L37.6834 24.4331H23.2668V30.608H31.3763L30.8526 36.9312H23.2668V43.1061H30.3536L29.6854 51.1145L23.2666 52.9733V59.3974L35.065 55.8891L35.1515 54.8458L36.5041 38.5893L36.6445 36.9312V36.9312Z" fill="white"/>
</svg>
