<svg width="50" height="80" viewBox="0 0 50 80" fill="none" xmlns="http://www.w3.org/2000/svg">
<g clip-path="url(#clip0_208_387)">
<path d="M12.9709 79.4596C19.7843 79.4596 25.3139 73.5267 25.3139 66.2164V52.9731H12.9709C6.15759 52.9731 0.62793 58.9061 0.62793 66.2164C0.62793 73.5267 6.15759 79.4596 12.9709 79.4596Z" fill="#0ACF83"/>
<path d="M0.62793 39.7296C0.62793 32.4193 6.15759 26.4863 12.9709 26.4863H25.3139V52.9728H12.9709C6.15759 52.9728 0.62793 47.0398 0.62793 39.7296Z" fill="#A259FF"/>
<path d="M0.62793 13.2432C0.62793 5.93297 6.15759 0 12.9709 0H25.3139V26.4865H12.9709C6.15759 26.4865 0.62793 20.5535 0.62793 13.2432Z" fill="#F24E1E"/>
<path d="M25.3135 0H37.6565C44.4698 0 49.9995 5.93297 49.9995 13.2432C49.9995 20.5535 44.4698 26.4865 37.6565 26.4865H25.3135V0Z" fill="#FF7262"/>
<path d="M49.9995 39.7296C49.9995 47.0398 44.4698 52.9728 37.6565 52.9728C30.8431 52.9728 25.3135 47.0398 25.3135 39.7296C25.3135 32.4193 30.8431 26.4863 37.6565 26.4863C44.4698 26.4863 49.9995 32.4193 49.9995 39.7296Z" fill="#1ABCFE"/>
</g>
<defs>
<clipPath id="clip0_208_387">
<rect width="49.372" height="79.4595" fill="white" transform="translate(0.62793)"/>
</clipPath>
</defs>
</svg>
