<svg width="66" height="71" viewBox="0 0 66 71" fill="none" xmlns="http://www.w3.org/2000/svg">
<g clip-path="url(#clip0_208_378)">
<path d="M64.6068 32.1677L36.2746 1.77346C35.8867 1.35704 35.4261 1.02671 34.9192 0.801337C34.4123 0.575962 33.8689 0.459961 33.3202 0.459961C32.7714 0.459961 32.2281 0.575962 31.7211 0.801337C31.2142 1.02671 30.7536 1.35704 30.3657 1.77346L24.4851 8.08292L31.9474 16.0894C32.8274 15.767 33.7743 15.7166 34.6798 15.9439C35.5853 16.1711 36.413 16.667 37.0685 17.3748C37.7239 18.0826 38.1807 18.9738 38.3867 19.9468C38.5927 20.9198 38.5396 21.9353 38.2335 22.8775L45.424 30.5968C46.4878 30.1949 47.6475 30.1937 48.712 30.5934C49.7766 30.993 50.6825 31.7697 51.2808 32.7956C51.879 33.8214 52.1338 35.0352 52.0032 36.2372C51.8726 37.4392 51.3645 38.5576 50.5624 39.4083C49.7504 40.2849 48.6799 40.8317 47.5339 40.9555C46.3878 41.0793 45.2373 40.7724 44.2787 40.0871C43.3202 39.4018 42.6131 38.3807 42.2784 37.1982C41.9436 36.0157 42.0018 34.7451 42.4431 33.6036L35.7393 26.4065V45.3479C36.7583 45.8891 37.5736 46.7886 38.0494 47.8966C38.5252 49.0046 38.6327 50.2541 38.354 51.4368C38.0752 52.6195 37.4271 53.6639 36.5177 54.3961C35.6082 55.1283 34.4924 55.5039 33.3561 55.4603C32.2198 55.4168 31.1318 54.9567 30.2733 54.1568C29.4149 53.3569 28.8379 52.2655 28.6385 51.0645C28.4391 49.8635 28.6294 48.6254 29.1776 47.5567C29.7259 46.4879 30.5989 45.6531 31.6513 45.1912V26.0758C31.0441 25.8088 30.4922 25.4156 30.0274 24.9187C29.5625 24.4218 29.1939 23.8312 28.9429 23.1807C28.6918 22.5303 28.5632 21.833 28.5644 21.129C28.5657 20.4249 28.6969 19.7282 28.9503 19.0788L21.5976 11.1854L2.17148 32.0284C1.78337 32.4446 1.47549 32.9388 1.26544 33.4827C1.05538 34.0266 0.947266 34.6096 0.947266 35.1984C0.947266 35.7871 1.05538 36.3701 1.26544 36.914C1.47549 37.4579 1.78337 37.9521 2.17148 38.3683L30.5036 68.7669C30.8915 69.1833 31.3521 69.5136 31.859 69.739C32.366 69.9644 32.9093 70.0804 33.4581 70.0804C34.0068 70.0804 34.5502 69.9644 35.0571 69.739C35.564 69.5136 36.0246 69.1833 36.4125 68.7669L64.6108 38.5119C65.3937 37.6708 65.8333 36.5307 65.8333 35.342C65.8333 34.1533 65.3937 33.0132 64.6108 32.172" fill="black"/>
</g>
<defs>
<clipPath id="clip0_208_378">
<rect width="64.8889" height="69.6216" fill="white" transform="translate(0.942383 0.459473)"/>
</clipPath>
</defs>
</svg>
