<svg width="46" height="71" viewBox="0 0 46 71" fill="none" xmlns="http://www.w3.org/2000/svg">
<g clip-path="url(#clip0_208_367)">
<path d="M45.8088 14.1074L41.6428 64.3198L22.9165 69.9054L4.24175 64.3276L0.0800781 14.1074H45.8088Z" fill="#E44D26"/>
<path d="M22.9443 65.6357L38.0762 61.1223L41.6361 18.2134H22.9443V65.6357Z" fill="#F16529"/>
<path d="M14.8453 30.5323H22.9438V24.373H8.58887L8.72582 26.0255L10.1329 42.9989H22.9438V36.8396H15.3685L14.8453 30.5323V30.5323ZM16.1355 46.0786H10.3887L11.1907 55.7496L22.9175 59.2519L22.9438 59.2442V52.836L22.9187 52.8431L16.5431 50.9909L16.1355 46.0786Z" fill="#EBEBEB"/>
<path d="M4.33398 0.459473H7.24323V3.55195H9.90457V0.459473H12.814V9.82425H9.90475V6.68839H7.24341V9.82425H4.33416V0.459473H4.33398ZM16.6396 3.56506H14.0788V0.459473H22.1118V3.56506H19.5494V9.82425H16.6401V3.56506H16.6399H16.6396ZM23.3866 0.459473H26.4201L28.2861 3.75001L30.1503 0.459473H33.185V9.82425H30.2876V5.18256L28.2861 8.51224H28.2359L26.2331 5.18256V9.82425H23.3866V0.459473ZM34.6328 0.459473H37.5429V6.72889H41.6342V9.82425H34.6326V0.459473H34.6328Z" fill="black"/>
<path d="M22.924 42.9989H29.9734L29.3088 50.987L22.9238 52.8412V59.249L34.6599 55.7496L34.746 54.709L36.0914 38.4935L36.2311 36.8396H22.924V42.9989ZM22.924 30.5173V30.5323H36.752L36.8667 29.148L37.1277 26.0255L37.2645 24.373H22.924V30.5175V30.5173Z" fill="white"/>
</g>
<defs>
<clipPath id="clip0_208_367">
<rect width="45.8883" height="69.6216" fill="white" transform="translate(0 0.459473)"/>
</clipPath>
</defs>
</svg>
