<svg width="66" height="71" viewBox="0 0 66 71" fill="none" xmlns="http://www.w3.org/2000/svg">
<path d="M0.598633 0.459473V70.0811H65.4875V0.459473H0.598633ZM35.9112 54.7597C35.9112 61.5362 32.2082 64.6181 26.8051 64.6181C21.9298 64.6181 19.0985 61.9075 17.6601 58.6399L22.6262 55.4141C23.5844 57.215 24.4561 58.756 26.5455 58.756C28.5484 58.756 29.8116 57.9368 29.8116 54.6483V32.4158H35.9112V54.7597V54.7597ZM50.3295 64.6181C44.6668 64.6181 41.0071 61.7219 39.2227 57.9344L44.1867 54.8548C45.4931 57.1245 47.1932 58.8233 50.1997 58.8233C52.7239 58.8233 54.3158 57.468 54.3158 55.5836C54.3158 53.3417 52.659 52.5434 49.8731 51.2554L48.359 50.536C43.9596 48.5286 41.0417 46.0036 41.0417 40.6729C41.0417 35.7692 44.5111 32.0282 49.9704 32.0282C53.8465 32.0282 56.6324 33.4787 58.6396 37.2591L53.9027 40.5198C52.8645 38.5239 51.7268 37.7117 49.9834 37.7117C48.2011 37.7117 47.0591 38.9231 47.0591 40.5198C47.0591 42.497 48.1838 43.2768 50.801 44.4882L52.3216 45.2076C57.5062 47.5747 60.4262 50.0115 60.4262 55.4884C60.4413 61.3923 56.1306 64.6088 50.336 64.6088L50.3295 64.6181Z" fill="black"/>
</svg>
