<svg width="66" height="71" viewBox="0 0 66 71" fill="none" xmlns="http://www.w3.org/2000/svg">
<path d="M59.1103 11.4031L47.4181 5.36342C46.7578 5.02183 46.0148 4.90911 45.2921 5.04087C44.5695 5.17264 43.9029 5.54236 43.3848 6.0988L5.11053 43.5378C4.64615 43.9899 4.36817 44.6214 4.33775 45.2934C4.30733 45.9654 4.52695 46.6229 4.9483 47.1212C4.999 47.1799 5.04969 47.2365 5.10444 47.2887L8.22925 50.3346C8.63757 50.7334 9.16315 50.966 9.71473 50.9923C10.2663 51.0185 10.809 50.8366 11.2486 50.4782L57.3501 12.9696C57.6984 12.6861 58.1134 12.5125 58.5486 12.4683C58.9838 12.4242 59.4218 12.5113 59.8134 12.7198C60.2049 12.9282 60.5345 13.2498 60.7649 13.6484C60.9954 14.0469 61.1176 14.5065 61.1178 14.9756V14.8298C61.1177 14.1138 60.9293 13.4123 60.5741 12.8061C60.219 12.1999 59.7116 11.7136 59.1103 11.4031V11.4031Z" fill="#0065A9"/>
<path d="M59.1103 59.1374L47.4181 65.1792C46.7576 65.5198 46.0148 65.632 45.2924 65.5003C44.5699 65.3686 43.9034 64.9994 43.3848 64.4438L5.11053 27.0026C4.64615 26.5505 4.36817 25.919 4.33775 25.247C4.30733 24.575 4.52695 23.9176 4.9483 23.4193C4.999 23.3605 5.04969 23.304 5.10444 23.2518L8.22925 20.2058C8.63798 19.8054 9.16477 19.5717 9.7177 19.5454C10.2706 19.5192 10.8146 19.7021 11.2547 20.0622L57.3501 57.5709C57.6984 57.8544 58.1134 58.028 58.5486 58.0721C58.9838 58.1162 59.4218 58.0292 59.8134 57.8207C60.2049 57.6122 60.5345 57.2906 60.7649 56.8921C60.9954 56.4935 61.1176 56.0339 61.1178 55.5649V55.7215C61.1156 56.4357 60.9261 57.1347 60.5711 57.7387C60.2161 58.3428 59.7099 58.8275 59.1103 59.1374V59.1374Z" fill="#007ACC"/>
<path d="M47.4183 65.1793C46.7578 65.52 46.0151 65.6322 45.2926 65.5004C44.5701 65.3687 43.9036 64.9996 43.3851 64.444C43.6763 64.7523 44.0458 64.9616 44.4474 65.0456C44.849 65.1296 45.2647 65.0846 45.6425 64.9161C46.0204 64.7477 46.3435 64.4634 46.5713 64.0988C46.7992 63.7342 46.9217 63.3056 46.9235 62.8666V7.67406C46.9239 7.23302 46.8022 6.8018 46.5739 6.43502C46.3457 6.06824 46.0211 5.78241 45.6413 5.61372C45.2615 5.44504 44.8436 5.40109 44.4405 5.48746C44.0374 5.57382 43.6672 5.78661 43.377 6.09887C43.8951 5.54264 44.5615 5.17289 45.2841 5.04076C46.0066 4.90863 46.7496 5.02064 47.4102 5.36132L59.1003 11.3923C59.7036 11.7012 60.2131 12.1869 60.5701 12.7932C60.9271 13.3995 61.117 14.1018 61.118 14.819V55.7217C61.1181 56.4383 60.9296 57.1404 60.5741 57.747C60.2185 58.3537 59.7105 58.8402 59.1085 59.1505L47.4183 65.1793Z" fill="#1F9CF0"/>
</svg>
